<svg xmlns="http://www.w3.org/2000/svg" data-name="Layer 1" viewBox="0 0 512 512"><rect width="497" height="497" x="7.5" y="7.503" fill="#fff" rx="30"/><path fill="#676e87" d="M504.5,37.50274v60H7.5v-60a29.99808,29.99808,0,0,1,30-30h437A29.99808,29.99808,0,0,1,504.5,37.50274Z"/><path fill="#dedede" d="M89.99365,444.50127a7.50153,7.50153,0,0,1-6.0415-11.93652l121-165a7.49966,7.49966,0,0,1,11.53125-.68164L352.93652,413.10283l92.55323-161.82617a7.49992,7.49992,0,1,1,13.0205,7.44727l-97.60449,170.6582a7.4997,7.4997,0,0,1-11.99365,1.39355L211.69385,283.73662,96.04785,441.43584A7.49418,7.49418,0,0,1,89.99365,444.50127Z"/><circle cx="210.993" cy="272.032" r="22.5" fill="#dedede"/><path fill="#dedede" d="M210.99292,249.53252a22.45424,22.45424,0,0,0-7.5,1.28516,22.50214,22.50214,0,0,1,0,42.42944,22.50058,22.50058,0,1,0,7.5-43.7146Z"/><circle cx="90" cy="437" r="22.5" fill="#dedede"/><path fill="#dedede" d="M90,414.50005a22.45437,22.45437,0,0,0-7.5,1.2854,22.502,22.502,0,0,1,0,42.4292,22.50058,22.50058,0,1,0,7.5-43.7146Z"/><circle cx="354.358" cy="425.6" r="22.5" fill="#dedede"/><path fill="#dedede" d="M354.35828,403.09966a22.45428,22.45428,0,0,0-7.5,1.2854,22.502,22.502,0,0,1,0,42.4292,22.50058,22.50058,0,1,0,7.5-43.7146Z"/><circle cx="452" cy="255" r="22.5" fill="#dedede"/><path fill="#dedede" d="M452,232.50005a22.45437,22.45437,0,0,0-7.5,1.2854,22.502,22.502,0,0,1,0,42.4292,22.50058,22.50058,0,1,0,7.5-43.7146Z"/><circle cx="195.993" cy="272.032" r="22.5" fill="#63ea86"/><path fill="#3ce568" d="M195.99292,249.53252a22.45424,22.45424,0,0,0-7.5,1.28516,22.50214,22.50214,0,0,1,0,42.42944,22.50058,22.50058,0,1,0,7.5-43.7146Z"/><circle cx="75" cy="437" r="22.5" fill="#f66"/><path fill="#ff4e4e" d="M75,414.50005a22.45437,22.45437,0,0,0-7.5,1.2854,22.502,22.502,0,0,1,0,42.4292,22.50058,22.50058,0,1,0,7.5-43.7146Z"/><circle cx="339.358" cy="425.6" r="22.5" fill="#f66"/><path fill="#ff4e4e" d="M339.35828,403.09966a22.45428,22.45428,0,0,0-7.5,1.2854,22.502,22.502,0,0,1,0,42.4292,22.50058,22.50058,0,1,0,7.5-43.7146Z"/><circle cx="437" cy="255" r="22.5" fill="#63ea86"/><path fill="#3ce568" d="M437,232.50005a22.45437,22.45437,0,0,0-7.5,1.2854,22.502,22.502,0,0,1,0,42.4292,22.50058,22.50058,0,1,0,7.5-43.7146Z"/><rect width="69" height="45" x="279.5" y="142.5" fill="#63ea86" rx="10"/><path fill="#3ce568" d="M338.5,142.5h-15a10,10,0,0,1,10,10v25a10.0001,10.0001,0,0,1-10,10h15a10.0001,10.0001,0,0,0,10-10v-25A10,10,0,0,0,338.5,142.5Z"/><rect width="69" height="45" x="52.5" y="142.5" fill="#f66" rx="10"/><path fill="#ff4e4e" d="M111.5,142.5h-15a9.99991,9.99991,0,0,1,10,10v25a10.00006,10.00006,0,0,1-10,10h15a10.00006,10.00006,0,0,0,10-10v-25A9.99991,9.99991,0,0,0,111.5,142.5Z"/><path fill="#272a33" d="M289.5,195.00029h49a17.52,17.52,0,0,0,17.5-17.5v-25a17.52,17.52,0,0,0-17.5-17.5h-49a17.52,17.52,0,0,0-17.5,17.5v25A17.52,17.52,0,0,0,289.5,195.00029Zm-2.5-42.5a2.50263,2.50263,0,0,1,2.5-2.5h49a2.50263,2.50263,0,0,1,2.5,2.5v25a2.50263,2.50263,0,0,1-2.5,2.5h-49a2.50263,2.50263,0,0,1-2.5-2.5Zm-212,314.5a29.98223,29.98223,0,0,0,23.21582-48.97656l86.64465-118.1416a29.9223,29.9223,0,0,0,25.485-1.51318L314.061,409.50518a29.999,29.999,0,1,0,46.26777-5.33057l68.76434-120.2395a30.07249,30.07249,0,1,0-13.01325-7.46167L347.332,396.68413a29.91923,29.91923,0,0,0-22.31647,2.57349L221.29626,288.11748a29.99786,29.99786,0,1,0-48.52484,2.88452L86.124,409.14751A29.99653,29.99653,0,1,0,75,467.00029Zm362-227a15,15,0,1,1-15,15A15.01672,15.01672,0,0,1,437,240.00029ZM339.3584,410.5999a15,15,0,1,1-15,15A15.01672,15.01672,0,0,1,339.3584,410.5999ZM195.99268,257.03252a15,15,0,1,1-15,15A15.01672,15.01672,0,0,1,195.99268,257.03252ZM75,422.00029a15,15,0,1,1-15,15A15.01672,15.01672,0,0,1,75,422.00029Zm91.5-234.5h66a7.5,7.5,0,0,0,0-15h-66a7.5,7.5,0,0,0,0,15Zm227,0h66a7.5,7.5,0,0,0,0-15h-66a7.5,7.5,0,0,0,0,15Zm0-30h66a7.5,7.5,0,0,0,0-15h-66a7.5,7.5,0,0,0,0,15Zm-227,0h66a7.5,7.5,0,0,0,0-15h-66a7.5,7.5,0,0,0,0,15ZM84.627,46.92705a7.5,7.5,0,1,0,7.5,7.5A7.5,7.5,0,0,0,84.627,46.92705Zm-30,0a7.5,7.5,0,1,0,7.5,7.5A7.5,7.5,0,0,0,54.627,46.92705ZM62.5,195.00029h49a17.52,17.52,0,0,0,17.5-17.5v-25a17.52,17.52,0,0,0-17.5-17.5h-49a17.52,17.52,0,0,0-17.5,17.5v25A17.52,17.52,0,0,0,62.5,195.00029Zm-2.5-42.5a2.50263,2.50263,0,0,1,2.5-2.5h49a2.50263,2.50263,0,0,1,2.5,2.5v25a2.50263,2.50263,0,0,1-2.5,2.5h-49a2.50263,2.50263,0,0,1-2.5-2.5ZM114.627,46.92705a7.5,7.5,0,1,0,7.5,7.5A7.5,7.5,0,0,0,114.627,46.92705ZM474.5.00029H37.5a37.54227,37.54227,0,0,0-37.5,37.5v437a37.54226,37.54226,0,0,0,37.5,37.5h437a37.54226,37.54226,0,0,0,37.5-37.5v-437A37.54227,37.54227,0,0,0,474.5.00029Zm22.5,474.5a22.52554,22.52554,0,0,1-22.5,22.5H37.5a22.52554,22.52554,0,0,1-22.5-22.5v-369.5H497Zm0-384.5H15v-52.5a22.52554,22.52554,0,0,1,22.5-22.5h437a22.52554,22.52554,0,0,1,22.5,22.5Z"/></svg>